<svg xmlns="http://www.w3.org/2000/svg" viewBox="0 0 365.51 364.86"><defs><style>.cls-1{fill:#fdb62f;}.cls-2{fill:#de0418;}.cls-3{fill:#fce9cc;}</style></defs><title>Ativo 1</title><g id="Camada_2" data-name="Camada 2"><g id="Capa_1" data-name="Capa 1"><path class="cls-1" d="M325.79,107.19a18.52,18.52,0,0,0-9.24-13,16.94,16.94,0,0,0-15-1.35c0-.39.11-.76.11-1.15a18.09,18.09,0,0,0-17.93-18.25,18.32,18.32,0,0,0-6.51,1.16c0-.39.12-.76.12-1.16A18.24,18.24,0,0,0,259.1,55.23,18.24,18.24,0,0,0,240.85,37c-.39,0-.76.09-1.15.11a16.75,16.75,0,0,0-.29-12.91A18.8,18.8,0,0,0,224.2,12.73a18.14,18.14,0,0,0-14.91,5.81A18.21,18.21,0,0,0,174,24.82a18.22,18.22,0,0,0-33.63-9.73,17.73,17.73,0,0,0-13.17-1.91,18.5,18.5,0,0,0-13.71,14.39A18.07,18.07,0,0,0,118,43.17a18.14,18.14,0,0,0-14.14,8.39A17.72,17.72,0,0,0,89,50.13,18.33,18.33,0,0,0,77.76,61.25,18,18,0,0,0,78,74.18,18.22,18.22,0,0,0,64.5,91.72c0,.4.09.77.12,1.16a16.91,16.91,0,0,0-15,1.33,18.46,18.46,0,0,0-9.26,13A18.14,18.14,0,0,0,49,125.5l3.37,2.71H73.62V152H286.46V128.2h27.36l-.85-.85A18.18,18.18,0,0,0,325.79,107.19Z"/><path class="cls-2" d="M91.87,358.78,39.07,150.23a28.32,28.32,0,0,1,21.22-34,27.93,27.93,0,0,1,6.38-.72h.26A28.32,28.32,0,0,1,95,140.26l33.31,218.52Z"/><path class="cls-3" d="M128.35,358.78,96,147.47a28.32,28.32,0,0,1,24.49-31.7,25.64,25.64,0,0,1,3.61-.23h1a28.32,28.32,0,0,1,28.32,27.6l11.45,215.64Z"/><path class="cls-2" d="M153.43,144.59l11.41,214.19h36.49L212,145.33a28.33,28.33,0,0,0-26.81-29.76c-.49,0-1,0-1.46,0h-1.93a28.31,28.31,0,0,0-28.34,28.3c0,.25,0,.5,0,.75Z"/><path class="cls-3" d="M212.11,142.41,201.33,358.78h36.48l31.47-210.61a28.33,28.33,0,0,0-28-32.63h-.88A28.31,28.31,0,0,0,212.11,142.41Z"/><path class="cls-2" d="M298.62,115.54a28.32,28.32,0,0,1,27.44,35.36L274.3,358.78H237.81L270.6,139.56A28.32,28.32,0,0,1,298.62,115.54Z"/><path class="cls-1" d="M104,206.75H262.14v73H104Z"/><path class="cls-1" d="M61.46,24.32a18.18,18.18,0,0,0-34.22-8.64A17.14,17.14,0,0,0,25,15.45a18.25,18.25,0,1,0,0,36.49,18.08,18.08,0,0,0,2.53-.26A18.17,18.17,0,1,0,59.13,33.79c-.06-.12-.13-.23-.2-.35A18.07,18.07,0,0,0,61.46,24.32Z"/><path class="cls-1" d="M359.43,36.48a18.18,18.18,0,0,0-34.22-8.64,17.12,17.12,0,0,0-2.26-.22,18.25,18.25,0,1,0,2.53,36.23A18.17,18.17,0,1,0,357.1,46c-.06-.12-.13-.23-.2-.35A18,18,0,0,0,359.43,36.48Z"/><path d="M331.8,106.3A24.52,24.52,0,0,0,319.58,89a23.75,23.75,0,0,0-12.6-3.3A24.59,24.59,0,0,0,282.65,67.4a24.41,24.41,0,0,0-18.09-17.63,24.43,24.43,0,0,0-17.64-18.1A22.51,22.51,0,0,0,245,21.76,25,25,0,0,0,224.7,6.68a24.18,24.18,0,0,0-13.65,2.87A24.22,24.22,0,0,0,177,5.85,24.77,24.77,0,0,0,174,8.77a24.24,24.24,0,0,0-34.22-2.23c-.42.37-.84.76-1.23,1.16a23.39,23.39,0,0,0-12.77-.41,24.64,24.64,0,0,0-18.25,19.22,24.22,24.22,0,0,0,1.22,13,24.39,24.39,0,0,0-6.62,4.68,23.55,23.55,0,0,0-15,.23,24.39,24.39,0,0,0-16.27,26.2,24.45,24.45,0,0,0-11.6,15,22.77,22.77,0,0,0-12.57,3.28,24.63,24.63,0,0,0-12.26,17.38A24.19,24.19,0,0,0,38.64,124a34.24,34.24,0,0,0-5.47,27.72l54,213.12H279.05L332,152.4a34.07,34.07,0,0,0-4.87-27.77,24,24,0,0,0,4.71-18.33ZM52.68,99.47a10.83,10.83,0,0,1,9.86-.89,6.08,6.08,0,0,0,7.79-3.64,6,6,0,0,0,.36-2.44c0-.15-.09-.61-.11-.78a12.16,12.16,0,0,1,9-11.67,6.09,6.09,0,0,0,4.28-7.47c-.07-.22-.14-.45-.23-.67a11.9,11.9,0,0,1-.18-8.61A12.34,12.34,0,0,1,91,55.91a11.69,11.69,0,0,1,9.89,1,6.08,6.08,0,0,0,8.13-2,12,12,0,0,1,9.43-5.58,6.08,6.08,0,0,0,5.65-6.48,6.15,6.15,0,0,0-1.59-3.7,12,12,0,0,1-3-10.42,12.32,12.32,0,0,1,9.19-9.57,11.51,11.51,0,0,1,8.73,1.3,6.08,6.08,0,0,0,8.13-2,12.16,12.16,0,0,1,22.41,6.47,6.08,6.08,0,1,0,12.16,0,12.13,12.13,0,0,1,23.52-4.15,6.07,6.07,0,0,0,4.52,3.86,6,6,0,0,0,5.65-1.82,12.14,12.14,0,0,1,9.94-3.89,12.72,12.72,0,0,1,10.16,7.83,10.57,10.57,0,0,1,.15,8.4,6.07,6.07,0,0,0,5.72,8.16c.26,0,.88-.08,1.15-.11A12.16,12.16,0,0,1,253,55.26a6.08,6.08,0,0,0,6.08,6.08,12.16,12.16,0,0,1,12.16,12c0,.15-.09.8-.1,1a6.08,6.08,0,0,0,5.7,6.44,6,6,0,0,0,2.45-.36,11.8,11.8,0,0,1,4.11-.78,12.17,12.17,0,0,1,12.17,12c0,.15-.1.8-.11,1a6.09,6.09,0,0,0,8.14,6.08,10.92,10.92,0,0,1,9.89.89,12.34,12.34,0,0,1,6.25,8.6,12,12,0,0,1-1.35,7.63l-.15-.09a33.3,33.3,0,0,0-3.94-2.35c-.33-.17-.66-.32-1-.48a32.32,32.32,0,0,0-4-1.62l-.35-.13a33.29,33.29,0,0,0-4.52-1c-.38-.07-.74-.12-1.11-.17a35.33,35.33,0,0,0-4.71-.38A34.34,34.34,0,0,0,270,124.82L270,125l-.06-.12a34.37,34.37,0,0,0-28.62-15.38h-.88A34.36,34.36,0,0,0,212,124.54a34.34,34.34,0,0,0-28.35-15.09h-1.93a34.32,34.32,0,0,0-28.35,15,34.34,34.34,0,0,0-28.35-15h-1A34.39,34.39,0,0,0,95.47,124.8a34.19,34.19,0,0,0-34.9-14.74c-.61.11-1.17.26-1.75.4a33.14,33.14,0,0,0-4.26,1.28c-.57.21-1.14.41-1.69.66A33,33,0,0,0,47.93,115c-.12.08-.26.14-.38.22l-.06,0a12.09,12.09,0,0,1-1.1-7.2,12.34,12.34,0,0,1,6.29-8.62Zm210.58,47.81-8,53.39h-40l2.89-57.95a22.47,22.47,0,0,1,22.2-21.1h.88a22.27,22.27,0,0,1,22,25.66Zm-103.73-3.12a22.22,22.22,0,0,1,21.91-22.54h2.25a22.16,22.16,0,0,1,18.47,10A21.93,21.93,0,0,1,205.91,145l-2.8,55.67H162.53l-3-56.18Zm-54-12.59a22.2,22.2,0,0,1,18.51-9.95h1a22.37,22.37,0,0,1,22.24,21.85l0,.66v.24l3,56.3H110.4l-8.51-56a21.86,21.86,0,0,1,3.69-13.08Zm-9,221.13L45,148.87a22.36,22.36,0,1,1,44-7.7l.71,4.67c.05.79.1,1.59.22,2.54l8,52.29V285.8H111l1.3,8.52,9,58.38Zm37,0-6.24-40.88-4-26h31.48l3.56,66.9Zm62,0H170.6l-3.55-66.9h31.84Zm37,0H207.72l3.34-66.9h31.51Zm-20.91-79.06H110.11V212.83h146v60.81ZM320.15,149.43,269.54,352.7H244.87l10-66.9h13.34V200.67l8.4-60.2a22.24,22.24,0,1,1,43.94,6.92c-.11.68-.25,1.36-.42,2Z"/><path d="M67.54,42.56a23.79,23.79,0,0,0-1.82-9.12,23.79,23.79,0,0,0,1.82-9.12A24.25,24.25,0,0,0,24.12,9.39,24.33,24.33,0,1,0,24.53,58a24.26,24.26,0,0,0,43-15.48ZM32.76,48.64l-2.49-3.47-4.05.57a8.67,8.67,0,0,1-1.24.12,12.17,12.17,0,1,1,0-24.33,12.53,12.53,0,0,1,1.5.18l4.13.52,2-3.64a12.11,12.11,0,0,1,22.79,5.73,12,12,0,0,1-1.7,6.08l-1.78,3,1.78,3a12,12,0,0,1,1.7,6.08A12.15,12.15,0,0,1,43.22,54.72,12,12,0,0,1,32.76,48.64Z"/><path d="M365.51,36.48a24.25,24.25,0,0,0-43.42-14.93,24.33,24.33,0,1,0,.41,48.65,24.26,24.26,0,0,0,43-15.48,23.79,23.79,0,0,0-1.82-9.12A23.79,23.79,0,0,0,365.51,36.48ZM351.65,48.64a12,12,0,0,1,1.7,6.08,12.16,12.16,0,0,1-12.16,12.17,12,12,0,0,1-10.46-6.08l-2.49-3.48-4.05.58a10.38,10.38,0,0,1-1.25.13,12.17,12.17,0,0,1,0-24.33,12.7,12.7,0,0,1,1.51.18l4.12.52,2-3.64a12.11,12.11,0,0,1,22.8,5.71,11.91,11.91,0,0,1-1.7,6.08l-1.78,3Z"/></g></g></svg>